<?xml version="1.0" encoding="UTF-8" standalone="no"?>
<!DOCTYPE svg PUBLIC "-//W3C//DTD SVG 1.1//EN"
 "http://www.w3.org/Graphics/SVG/1.1/DTD/svg11.dtd">
<!-- Generated by graphviz version 2.38.0 (20140413.2041)
 -->
<!-- Title: %3 Pages: 1 -->
<svg width="2150pt" height="1719pt"
 viewBox="0.00 0.00 2150.24 1719.13" xmlns="http://www.w3.org/2000/svg" xmlns:xlink="http://www.w3.org/1999/xlink">
<g id="graph0" class="graph" transform="scale(1 1) rotate(0) translate(4 1715.13)">
<title>%3</title>
<polygon fill="white" stroke="none" points="-4,4 -4,-1715.13 2146.24,-1715.13 2146.24,4 -4,4"/>
<!-- 192.168.0.0 -->
<g id="node1" class="node"><title>192.168.0.0</title>
<ellipse fill="cyan" stroke="black" cx="543.571" cy="-483.715" rx="53.0913" ry="18"/>
<text text-anchor="middle" x="543.571" y="-480.015" font-family="Times,serif" font-size="14.00">192.168.0.0</text>
</g>
<!-- 10.11.0.0 -->
<g id="node2" class="node"><title>10.11.0.0</title>
<ellipse fill="cyan" stroke="black" cx="1589.57" cy="-1224.71" rx="44.393" ry="18"/>
<text text-anchor="middle" x="1589.57" y="-1221.01" font-family="Times,serif" font-size="14.00">10.11.0.0</text>
</g>
<!-- 10.10.10.0 -->
<g id="node3" class="node"><title>10.10.10.0</title>
<ellipse fill="cyan" stroke="black" cx="996.597" cy="-1543.89" rx="48.9926" ry="18"/>
<text text-anchor="middle" x="996.597" y="-1540.19" font-family="Times,serif" font-size="14.00">10.10.10.0</text>
</g>
<!-- 192.168.0.1 -->
<g id="node4" class="node"><title>192.168.0.1</title>
<ellipse fill="white" stroke="black" cx="722.161" cy="-483.715" rx="53.0913" ry="18"/>
<text text-anchor="middle" x="722.161" y="-480.015" font-family="Times,serif" font-size="14.00">192.168.0.1</text>
</g>
<!-- 192.168.0.1&#45;&#45;192.168.0.0 -->
<g id="edge1" class="edge"><title>192.168.0.1&#45;&#45;192.168.0.0</title>
<path fill="none" stroke="black" d="M668.578,-483.715C645.975,-483.715 619.716,-483.715 597.116,-483.715"/>
</g>
<!-- 8.8.8.8 -->
<g id="node18" class="node"><title>8.8.8.8</title>
<ellipse fill="white" stroke="black" cx="883.204" cy="-483.715" rx="35.9954" ry="18"/>
<text text-anchor="middle" x="883.204" y="-480.015" font-family="Times,serif" font-size="14.00">8.8.8.8</text>
</g>
<!-- 192.168.0.1&#45;&#45;8.8.8.8 -->
<g id="edge17" class="edge"><title>192.168.0.1&#45;&#45;8.8.8.8</title>
<path fill="none" stroke="black" d="M775.786,-483.715C799.21,-483.715 826.064,-483.715 847.063,-483.715"/>
</g>
<!-- 192.168.0.5 -->
<g id="node5" class="node"><title>192.168.0.5</title>
<ellipse fill="white" stroke="black" cx="390.34" cy="-949.43" rx="53.0913" ry="18"/>
<text text-anchor="middle" x="390.34" y="-945.73" font-family="Times,serif" font-size="14.00">192.168.0.5</text>
</g>
<!-- 192.168.0.5&#45;&#45;192.168.0.0 -->
<g id="edge2" class="edge"><title>192.168.0.5&#45;&#45;192.168.0.0</title>
<path fill="none" stroke="black" d="M396.252,-931.459C420.645,-857.322 513.316,-575.669 537.676,-501.633"/>
</g>
<!-- 192.168.0.7 -->
<g id="node6" class="node"><title>192.168.0.7</title>
<ellipse fill="white" stroke="black" cx="53.2953" cy="-483.715" rx="53.0913" ry="18"/>
<text text-anchor="middle" x="53.2953" y="-480.015" font-family="Times,serif" font-size="14.00">192.168.0.7</text>
</g>
<!-- 192.168.0.7&#45;&#45;192.168.0.0 -->
<g id="edge3" class="edge"><title>192.168.0.7&#45;&#45;192.168.0.0</title>
<path fill="none" stroke="black" d="M106.697,-483.715C201.005,-483.715 395.973,-483.715 490.235,-483.715"/>
</g>
<!-- 192.168.0.6 -->
<g id="node7" class="node"><title>192.168.0.6</title>
<ellipse fill="white" stroke="black" cx="390.34" cy="-18" rx="53.0913" ry="18"/>
<text text-anchor="middle" x="390.34" y="-14.3" font-family="Times,serif" font-size="14.00">192.168.0.6</text>
</g>
<!-- 192.168.0.6&#45;&#45;192.168.0.0 -->
<g id="edge4" class="edge"><title>192.168.0.6&#45;&#45;192.168.0.0</title>
<path fill="none" stroke="black" d="M396.252,-35.9712C420.645,-110.108 513.316,-391.76 537.676,-465.797"/>
</g>
<!-- 127.0.0.1 -->
<g id="node8" class="node"><title>127.0.0.1</title>
<ellipse fill="white" stroke="black" cx="1194.89" cy="-323.973" rx="44.393" ry="18"/>
<text text-anchor="middle" x="1194.89" y="-320.273" font-family="Times,serif" font-size="14.00">127.0.0.1</text>
</g>
<!-- unknown -->
<g id="node19" class="node"><title>unknown</title>
<ellipse fill="red" stroke="black" cx="1194.89" cy="-483.715" rx="43.5923" ry="18"/>
<text text-anchor="middle" x="1194.89" y="-480.015" font-family="Times,serif" font-size="14.00">unknown</text>
</g>
<!-- 127.0.0.1&#45;&#45;unknown -->
<g id="edge5" class="edge"><title>127.0.0.1&#45;&#45;unknown</title>
<path fill="none" stroke="black" d="M1194.89,-341.987C1194.89,-372.666 1194.89,-434.72 1194.89,-465.522"/>
</g>
<!-- 10.11.10.4 -->
<g id="node9" class="node"><title>10.11.10.4</title>
<ellipse fill="white" stroke="black" cx="2093.5" cy="-1224.71" rx="48.9926" ry="18"/>
<text text-anchor="middle" x="2093.5" y="-1221.01" font-family="Times,serif" font-size="14.00">10.11.10.4</text>
</g>
<!-- 10.11.10.4&#45;&#45;10.11.0.0 -->
<g id="edge6" class="edge"><title>10.11.10.4&#45;&#45;10.11.0.0</title>
<path fill="none" stroke="black" d="M2044.72,-1224.71C1946.91,-1224.71 1728.13,-1224.71 1634.01,-1224.71"/>
</g>
<!-- 10.11.10.5 -->
<g id="node10" class="node"><title>10.11.10.5</title>
<ellipse fill="white" stroke="black" cx="1867.1" cy="-1645.33" rx="48.9926" ry="18"/>
<text text-anchor="middle" x="1867.1" y="-1641.63" font-family="Times,serif" font-size="14.00">10.11.10.5</text>
</g>
<!-- 10.11.10.5&#45;&#45;10.11.0.0 -->
<g id="edge7" class="edge"><title>10.11.10.5&#45;&#45;10.11.0.0</title>
<path fill="none" stroke="black" d="M1855.52,-1627.8C1810.39,-1559.38 1646.42,-1310.87 1601.19,-1242.33"/>
</g>
<!-- 10.11.10.1 -->
<g id="node11" class="node"><title>10.11.10.1</title>
<ellipse fill="white" stroke="black" cx="1444.33" cy="-1302.89" rx="48.9926" ry="18"/>
<text text-anchor="middle" x="1444.33" y="-1299.19" font-family="Times,serif" font-size="14.00">10.11.10.1</text>
</g>
<!-- 10.11.10.1&#45;&#45;10.11.0.0 -->
<g id="edge8" class="edge"><title>10.11.10.1&#45;&#45;10.11.0.0</title>
<path fill="none" stroke="black" d="M1471.99,-1288C1498,-1274 1536.69,-1253.18 1562.51,-1239.28"/>
</g>
<!-- 10.11.10.2 -->
<g id="node12" class="node"><title>10.11.10.2</title>
<ellipse fill="white" stroke="black" cx="1391.33" cy="-761.424" rx="48.9926" ry="18"/>
<text text-anchor="middle" x="1391.33" y="-757.724" font-family="Times,serif" font-size="14.00">10.11.10.2</text>
</g>
<!-- 10.11.10.2&#45;&#45;10.11.0.0 -->
<g id="edge9" class="edge"><title>10.11.10.2&#45;&#45;10.11.0.0</title>
<path fill="none" stroke="black" d="M1398.98,-779.301C1430.53,-853.052 1550.43,-1133.24 1581.94,-1206.89"/>
</g>
<!-- 10.11.10.3 -->
<g id="node13" class="node"><title>10.11.10.3</title>
<ellipse fill="white" stroke="black" cx="1867.1" cy="-804.096" rx="48.9926" ry="18"/>
<text text-anchor="middle" x="1867.1" y="-800.396" font-family="Times,serif" font-size="14.00">10.11.10.3</text>
</g>
<!-- 10.11.10.3&#45;&#45;10.11.0.0 -->
<g id="edge10" class="edge"><title>10.11.10.3&#45;&#45;10.11.0.0</title>
<path fill="none" stroke="black" d="M1855.52,-821.634C1810.39,-890.045 1646.42,-1138.56 1601.19,-1207.1"/>
</g>
<!-- 10.10.10.3 -->
<g id="node14" class="node"><title>10.10.10.3</title>
<ellipse fill="white" stroke="black" cx="1076.93" cy="-1693.13" rx="48.9926" ry="18"/>
<text text-anchor="middle" x="1076.93" y="-1689.43" font-family="Times,serif" font-size="14.00">10.10.10.3</text>
</g>
<!-- 10.10.10.3&#45;&#45;10.10.10.0 -->
<g id="edge11" class="edge"><title>10.10.10.3&#45;&#45;10.10.10.0</title>
<path fill="none" stroke="black" d="M1067.4,-1675.43C1051.94,-1646.7 1021.57,-1590.28 1006.11,-1561.57"/>
</g>
<!-- 10.10.10.2 -->
<g id="node15" class="node"><title>10.10.10.2</title>
<ellipse fill="white" stroke="black" cx="916.265" cy="-1394.64" rx="48.9926" ry="18"/>
<text text-anchor="middle" x="916.265" y="-1390.94" font-family="Times,serif" font-size="14.00">10.10.10.2</text>
</g>
<!-- 10.10.10.2&#45;&#45;10.10.10.0 -->
<g id="edge12" class="edge"><title>10.10.10.2&#45;&#45;10.10.10.0</title>
<path fill="none" stroke="black" d="M925.795,-1412.35C941.256,-1441.07 971.626,-1497.49 987.079,-1526.2"/>
</g>
<!-- 10.10.10.1 -->
<g id="node16" class="node"><title>10.10.10.1</title>
<ellipse fill="white" stroke="black" cx="1295.09" cy="-1383.22" rx="48.9926" ry="18"/>
<text text-anchor="middle" x="1295.09" y="-1379.52" font-family="Times,serif" font-size="14.00">10.10.10.1</text>
</g>
<!-- 10.10.10.1&#45;&#45;10.10.10.0 -->
<g id="edge13" class="edge"><title>10.10.10.1&#45;&#45;10.10.10.0</title>
<path fill="none" stroke="black" d="M1267.27,-1398.19C1210.4,-1428.81 1081.36,-1498.26 1024.45,-1528.9"/>
</g>
<!-- 10.10.10.1&#45;&#45;10.11.10.1 -->
<g id="edge16" class="edge"><title>10.10.10.1&#45;&#45;10.11.10.1</title>
<path fill="none" stroke="black" d="M1322.81,-1368.3C1349.53,-1353.92 1389.75,-1332.27 1416.51,-1317.87"/>
</g>
<!-- 8.8.4.4 -->
<g id="node17" class="node"><title>8.8.4.4</title>
<ellipse fill="white" stroke="black" cx="1194.89" cy="-643.457" rx="35.9954" ry="18"/>
<text text-anchor="middle" x="1194.89" y="-639.757" font-family="Times,serif" font-size="14.00">8.8.4.4</text>
</g>
<!-- 8.8.4.4&#45;&#45;unknown -->
<g id="edge14" class="edge"><title>8.8.4.4&#45;&#45;unknown</title>
<path fill="none" stroke="black" d="M1194.89,-625.443C1194.89,-594.763 1194.89,-532.71 1194.89,-501.908"/>
</g>
<!-- 8.8.8.8&#45;&#45;unknown -->
<g id="edge15" class="edge"><title>8.8.8.8&#45;&#45;unknown</title>
<path fill="none" stroke="black" d="M918.958,-483.715C976.442,-483.715 1089.24,-483.715 1151.33,-483.715"/>
</g>
</g>
</svg>
