<?xml version="1.0" encoding="UTF-8" standalone="no"?>
<!DOCTYPE svg PUBLIC "-//W3C//DTD SVG 1.1//EN"
 "http://www.w3.org/Graphics/SVG/1.1/DTD/svg11.dtd">
<!-- Generated by graphviz version 2.38.0 (20140413.2041)
 -->
<!-- Title: %3 Pages: 1 -->
<svg width="1934pt" height="1320pt"
 viewBox="0.00 0.00 1933.56 1319.99" xmlns="http://www.w3.org/2000/svg" xmlns:xlink="http://www.w3.org/1999/xlink">
<g id="graph0" class="graph" transform="scale(1 1) rotate(0) translate(4 1315.99)">
<title>%3</title>
<polygon fill="white" stroke="none" points="-4,4 -4,-1315.99 1929.56,-1315.99 1929.56,4 -4,4"/>
<!-- 192.168.0.0 -->
<g id="node1" class="node"><title>192.168.0.0</title>
<ellipse fill="cyan" stroke="black" cx="1388.56" cy="-871.887" rx="53.0913" ry="18"/>
<text text-anchor="middle" x="1388.56" y="-868.187" font-family="Times,serif" font-size="14.00">192.168.0.0</text>
</g>
<!-- 8.8.8.8 -->
<g id="node18" class="node"><title>8.8.8.8</title>
<ellipse fill="white" stroke="black" cx="1552.75" cy="-871.887" rx="38.7821" ry="26.7407"/>
<text text-anchor="middle" x="1552.75" y="-875.687" font-family="Times,serif" font-size="14.00">real1 </text>
<text text-anchor="middle" x="1552.75" y="-860.687" font-family="Times,serif" font-size="14.00">8.8.8.8</text>
</g>
<!-- 192.168.0.0&#45;&#45;8.8.8.8 -->
<g id="edge17" class="edge"><title>192.168.0.0&#45;&#45;8.8.8.8</title>
<path fill="none" stroke="black" d="M1441.87,-871.887C1465.28,-871.887 1492.26,-871.887 1513.75,-871.887"/>
</g>
<!-- 10.11.0.0 -->
<g id="node2" class="node"><title>10.11.0.0</title>
<ellipse fill="cyan" stroke="black" cx="691.561" cy="-430.887" rx="44.393" ry="18"/>
<text text-anchor="middle" x="691.561" y="-427.187" font-family="Times,serif" font-size="14.00">10.11.0.0</text>
</g>
<!-- 10.10.10.0 -->
<g id="node3" class="node"><title>10.10.10.0</title>
<ellipse fill="cyan" stroke="black" cx="221.64" cy="-690.012" rx="48.9926" ry="18"/>
<text text-anchor="middle" x="221.64" y="-686.312" font-family="Times,serif" font-size="14.00">10.10.10.0</text>
</g>
<!-- 10.11.10.1 -->
<g id="node11" class="node"><title>10.11.10.1</title>
<ellipse fill="white" stroke="black" cx="543.369" cy="-512.603" rx="53.066" ry="26.7407"/>
<text text-anchor="middle" x="543.369" y="-516.403" font-family="Times,serif" font-size="14.00">one </text>
<text text-anchor="middle" x="543.369" y="-501.403" font-family="Times,serif" font-size="14.00">10.11.10.1</text>
</g>
<!-- 10.10.10.0&#45;&#45;10.11.10.1 -->
<g id="edge16" class="edge"><title>10.10.10.0&#45;&#45;10.11.10.1</title>
<path fill="none" stroke="black" d="M248.793,-675.039C306.664,-643.128 442.158,-568.413 507.233,-532.53"/>
</g>
<!-- 192.168.0.1 -->
<g id="node4" class="node"><title>192.168.0.1</title>
<ellipse fill="white" stroke="black" cx="1380.39" cy="-1285.12" rx="57.9655" ry="26.7407"/>
<text text-anchor="middle" x="1380.39" y="-1288.92" font-family="Times,serif" font-size="14.00">neque </text>
<text text-anchor="middle" x="1380.39" y="-1273.92" font-family="Times,serif" font-size="14.00">192.168.0.1</text>
</g>
<!-- 192.168.0.1&#45;&#45;192.168.0.0 -->
<g id="edge1" class="edge"><title>192.168.0.1&#45;&#45;192.168.0.0</title>
<path fill="none" stroke="black" d="M1380.92,-1258.01C1382.47,-1179.9 1386.9,-955.798 1388.2,-890.159"/>
</g>
<!-- 192.168.0.5 -->
<g id="node5" class="node"><title>192.168.0.5</title>
<ellipse fill="white" stroke="black" cx="1029.27" cy="-1076.18" rx="57.9655" ry="26.7407"/>
<text text-anchor="middle" x="1029.27" y="-1079.98" font-family="Times,serif" font-size="14.00">maxime </text>
<text text-anchor="middle" x="1029.27" y="-1064.98" font-family="Times,serif" font-size="14.00">192.168.0.5</text>
</g>
<!-- 192.168.0.5&#45;&#45;192.168.0.0 -->
<g id="edge2" class="edge"><title>192.168.0.5&#45;&#45;192.168.0.0</title>
<path fill="none" stroke="black" d="M1066.03,-1055.28C1138.29,-1014.19 1297.33,-923.762 1361.21,-887.44"/>
</g>
<!-- 192.168.0.7 -->
<g id="node6" class="node"><title>192.168.0.7</title>
<ellipse fill="white" stroke="black" cx="1029.27" cy="-667.595" rx="57.9655" ry="26.7407"/>
<text text-anchor="middle" x="1029.27" y="-671.395" font-family="Times,serif" font-size="14.00">occaecati </text>
<text text-anchor="middle" x="1029.27" y="-656.395" font-family="Times,serif" font-size="14.00">192.168.0.7</text>
</g>
<!-- 192.168.0.7&#45;&#45;192.168.0.0 -->
<g id="edge3" class="edge"><title>192.168.0.7&#45;&#45;192.168.0.0</title>
<path fill="none" stroke="black" d="M1066.03,-688.497C1138.29,-729.582 1297.33,-820.012 1361.21,-856.334"/>
</g>
<!-- 192.168.0.6 -->
<g id="node7" class="node"><title>192.168.0.6</title>
<ellipse fill="white" stroke="black" cx="1380.39" cy="-458.655" rx="57.9655" ry="26.7407"/>
<text text-anchor="middle" x="1380.39" y="-462.455" font-family="Times,serif" font-size="14.00">ea </text>
<text text-anchor="middle" x="1380.39" y="-447.455" font-family="Times,serif" font-size="14.00">192.168.0.6</text>
</g>
<!-- 192.168.0.6&#45;&#45;192.168.0.0 -->
<g id="edge4" class="edge"><title>192.168.0.6&#45;&#45;192.168.0.0</title>
<path fill="none" stroke="black" d="M1380.92,-485.768C1382.47,-563.875 1386.9,-787.976 1388.2,-853.614"/>
</g>
<!-- 127.0.0.1 -->
<g id="node8" class="node"><title>127.0.0.1</title>
<ellipse fill="white" stroke="black" cx="1876.76" cy="-707.55" rx="48.5816" ry="26.7407"/>
<text text-anchor="middle" x="1876.76" y="-711.35" font-family="Times,serif" font-size="14.00">localhost </text>
<text text-anchor="middle" x="1876.76" y="-696.35" font-family="Times,serif" font-size="14.00">127.0.0.1</text>
</g>
<!-- unknown -->
<g id="node19" class="node"><title>unknown</title>
<ellipse fill="red" stroke="black" cx="1876.76" cy="-871.887" rx="43.5923" ry="18"/>
<text text-anchor="middle" x="1876.76" y="-868.187" font-family="Times,serif" font-size="14.00">unknown</text>
</g>
<!-- 127.0.0.1&#45;&#45;unknown -->
<g id="edge5" class="edge"><title>127.0.0.1&#45;&#45;unknown</title>
<path fill="none" stroke="black" d="M1876.76,-734.687C1876.76,-768.418 1876.76,-825.047 1876.76,-853.864"/>
</g>
<!-- 10.11.10.4 -->
<g id="node9" class="node"><title>10.11.10.4</title>
<ellipse fill="white" stroke="black" cx="1139.16" cy="-430.887" rx="53.066" ry="26.7407"/>
<text text-anchor="middle" x="1139.16" y="-434.687" font-family="Times,serif" font-size="14.00">four </text>
<text text-anchor="middle" x="1139.16" y="-419.687" font-family="Times,serif" font-size="14.00">10.11.10.4</text>
</g>
<!-- 10.11.10.4&#45;&#45;10.11.0.0 -->
<g id="edge6" class="edge"><title>10.11.10.4&#45;&#45;10.11.0.0</title>
<path fill="none" stroke="black" d="M1086.06,-430.887C996.901,-430.887 818.766,-430.887 735.88,-430.887"/>
</g>
<!-- 10.11.10.5 -->
<g id="node10" class="node"><title>10.11.10.5</title>
<ellipse fill="white" stroke="black" cx="930.427" cy="-809.418" rx="53.066" ry="26.7407"/>
<text text-anchor="middle" x="930.427" y="-813.218" font-family="Times,serif" font-size="14.00">five </text>
<text text-anchor="middle" x="930.427" y="-798.218" font-family="Times,serif" font-size="14.00">10.11.10.5</text>
</g>
<!-- 10.11.10.5&#45;&#45;10.11.0.0 -->
<g id="edge7" class="edge"><title>10.11.10.5&#45;&#45;10.11.0.0</title>
<path fill="none" stroke="black" d="M914.197,-783.698C868.73,-711.646 740.934,-509.128 702.579,-448.347"/>
</g>
<!-- 10.11.10.1&#45;&#45;10.11.0.0 -->
<g id="edge8" class="edge"><title>10.11.10.1&#45;&#45;10.11.0.0</title>
<path fill="none" stroke="black" d="M579.621,-492.613C606.013,-478.06 641.16,-458.679 664.979,-445.545"/>
</g>
<!-- 10.11.10.2 -->
<g id="node12" class="node"><title>10.11.10.2</title>
<ellipse fill="white" stroke="black" cx="498.912" cy="-26.8701" rx="53.066" ry="26.7407"/>
<text text-anchor="middle" x="498.912" y="-30.6701" font-family="Times,serif" font-size="14.00">two </text>
<text text-anchor="middle" x="498.912" y="-15.6701" font-family="Times,serif" font-size="14.00">10.11.10.2</text>
</g>
<!-- 10.11.10.2&#45;&#45;10.11.0.0 -->
<g id="edge9" class="edge"><title>10.11.10.2&#45;&#45;10.11.0.0</title>
<path fill="none" stroke="black" d="M511.404,-53.0674C547.673,-129.131 652.357,-348.67 683.024,-412.982"/>
</g>
<!-- 10.11.10.3 -->
<g id="node13" class="node"><title>10.11.10.3</title>
<ellipse fill="white" stroke="black" cx="930.427" cy="-52.355" rx="53.066" ry="26.7407"/>
<text text-anchor="middle" x="930.427" y="-56.155" font-family="Times,serif" font-size="14.00">three </text>
<text text-anchor="middle" x="930.427" y="-41.155" font-family="Times,serif" font-size="14.00">10.11.10.3</text>
</g>
<!-- 10.11.10.3&#45;&#45;10.11.0.0 -->
<g id="edge10" class="edge"><title>10.11.10.3&#45;&#45;10.11.0.0</title>
<path fill="none" stroke="black" d="M914.197,-78.0754C868.73,-150.127 740.934,-352.646 702.579,-413.426"/>
</g>
<!-- 10.10.10.3 -->
<g id="node14" class="node"><title>10.10.10.3</title>
<ellipse fill="white" stroke="black" cx="377.724" cy="-782.752" rx="60.623" ry="26.7407"/>
<text text-anchor="middle" x="377.724" y="-786.552" font-family="Times,serif" font-size="14.00">consequatur </text>
<text text-anchor="middle" x="377.724" y="-771.552" font-family="Times,serif" font-size="14.00">10.10.10.3</text>
</g>
<!-- 10.10.10.3&#45;&#45;10.10.10.0 -->
<g id="edge11" class="edge"><title>10.10.10.3&#45;&#45;10.10.10.0</title>
<path fill="none" stroke="black" d="M341.129,-761.009C312.476,-743.984 273.321,-720.72 247.763,-705.534"/>
</g>
<!-- 10.10.10.2 -->
<g id="node15" class="node"><title>10.10.10.2</title>
<ellipse fill="white" stroke="black" cx="60.8112" cy="-774.256" rx="60.623" ry="26.7407"/>
<text text-anchor="middle" x="60.8112" y="-778.056" font-family="Times,serif" font-size="14.00">dignissimos </text>
<text text-anchor="middle" x="60.8112" y="-763.056" font-family="Times,serif" font-size="14.00">10.10.10.2</text>
</g>
<!-- 10.10.10.2&#45;&#45;10.10.10.0 -->
<g id="edge12" class="edge"><title>10.10.10.2&#45;&#45;10.10.10.0</title>
<path fill="none" stroke="black" d="M100.154,-753.648C129.076,-738.498 167.685,-718.274 193.543,-704.73"/>
</g>
<!-- 10.10.10.1 -->
<g id="node16" class="node"><title>10.10.10.1</title>
<ellipse fill="white" stroke="black" cx="226.506" cy="-508.52" rx="53.066" ry="26.7407"/>
<text text-anchor="middle" x="226.506" y="-512.32" font-family="Times,serif" font-size="14.00">sit </text>
<text text-anchor="middle" x="226.506" y="-497.32" font-family="Times,serif" font-size="14.00">10.10.10.1</text>
</g>
<!-- 10.10.10.1&#45;&#45;10.10.10.0 -->
<g id="edge13" class="edge"><title>10.10.10.1&#45;&#45;10.10.10.0</title>
<path fill="none" stroke="black" d="M225.777,-535.692C224.772,-573.17 222.988,-639.722 222.129,-671.769"/>
</g>
<!-- 8.8.4.4 -->
<g id="node17" class="node"><title>8.8.4.4</title>
<ellipse fill="white" stroke="black" cx="1876.76" cy="-1036.22" rx="38.7821" ry="26.7407"/>
<text text-anchor="middle" x="1876.76" y="-1040.02" font-family="Times,serif" font-size="14.00">real2 </text>
<text text-anchor="middle" x="1876.76" y="-1025.02" font-family="Times,serif" font-size="14.00">8.8.4.4</text>
</g>
<!-- 8.8.4.4&#45;&#45;unknown -->
<g id="edge14" class="edge"><title>8.8.4.4&#45;&#45;unknown</title>
<path fill="none" stroke="black" d="M1876.76,-1009.09C1876.76,-975.356 1876.76,-918.726 1876.76,-889.909"/>
</g>
<!-- 8.8.8.8&#45;&#45;unknown -->
<g id="edge15" class="edge"><title>8.8.8.8&#45;&#45;unknown</title>
<path fill="none" stroke="black" d="M1591.83,-871.887C1652.68,-871.887 1769.65,-871.887 1833.15,-871.887"/>
</g>
</g>
</svg>
