<?xml version="1.0" encoding="UTF-8" standalone="no"?>
<!DOCTYPE svg PUBLIC "-//W3C//DTD SVG 1.1//EN"
 "http://www.w3.org/Graphics/SVG/1.1/DTD/svg11.dtd">
<!-- Generated by graphviz version 2.38.0 (20140413.2041)
 -->
<!-- Title: %3 Pages: 1 -->
<svg width="1836pt" height="1250pt"
 viewBox="0.00 0.00 1836.37 1250.02" xmlns="http://www.w3.org/2000/svg" xmlns:xlink="http://www.w3.org/1999/xlink">
<g id="graph0" class="graph" transform="scale(1 1) rotate(0) translate(4 1246.02)">
<title>%3</title>
<polygon fill="white" stroke="none" points="-4,4 -4,-1246.02 1832.37,-1246.02 1832.37,4 -4,4"/>
<!-- 192.168.0.0 -->
<g id="node1" class="node"><title>192.168.0.0</title>
<ellipse fill="cyan" stroke="black" cx="1311.44" cy="-823.113" rx="53.0913" ry="18"/>
<text text-anchor="middle" x="1311.44" y="-819.413" font-family="Times,serif" font-size="14.00">192.168.0.0</text>
</g>
<!-- 8.8.8.8 -->
<g id="node18" class="node"><title>8.8.8.8</title>
<ellipse fill="white" stroke="black" cx="1472.49" cy="-823.113" rx="35.9954" ry="18"/>
<text text-anchor="middle" x="1472.49" y="-819.413" font-family="Times,serif" font-size="14.00">8.8.8.8</text>
</g>
<!-- 192.168.0.0&#45;&#45;8.8.8.8 -->
<g id="edge17" class="edge"><title>192.168.0.0&#45;&#45;8.8.8.8</title>
<path fill="none" stroke="black" d="M1365.07,-823.113C1388.49,-823.113 1415.35,-823.113 1436.35,-823.113"/>
</g>
<!-- 10.11.0.0 -->
<g id="node2" class="node"><title>10.11.0.0</title>
<ellipse fill="cyan" stroke="black" cx="637.444" cy="-394.113" rx="44.393" ry="18"/>
<text text-anchor="middle" x="637.444" y="-390.413" font-family="Times,serif" font-size="14.00">10.11.0.0</text>
</g>
<!-- 10.10.10.0 -->
<g id="node3" class="node"><title>10.10.10.0</title>
<ellipse fill="cyan" stroke="black" cx="196.915" cy="-638.804" rx="48.9926" ry="18"/>
<text text-anchor="middle" x="196.915" y="-635.104" font-family="Times,serif" font-size="14.00">10.10.10.0</text>
</g>
<!-- 10.11.10.1 -->
<g id="node11" class="node"><title>10.11.10.1</title>
<ellipse fill="white" stroke="black" cx="493.252" cy="-474.204" rx="48.9926" ry="18"/>
<text text-anchor="middle" x="493.252" y="-470.504" font-family="Times,serif" font-size="14.00">10.11.10.1</text>
</g>
<!-- 10.10.10.0&#45;&#45;10.11.10.1 -->
<g id="edge16" class="edge"><title>10.10.10.0&#45;&#45;10.11.10.1</title>
<path fill="none" stroke="black" d="M223.998,-623.761C280.293,-592.492 409.393,-520.784 465.91,-489.391"/>
</g>
<!-- 192.168.0.1 -->
<g id="node4" class="node"><title>192.168.0.1</title>
<ellipse fill="white" stroke="black" cx="1303.98" cy="-1224.02" rx="53.0913" ry="18"/>
<text text-anchor="middle" x="1303.98" y="-1220.32" font-family="Times,serif" font-size="14.00">192.168.0.1</text>
</g>
<!-- 192.168.0.1&#45;&#45;192.168.0.0 -->
<g id="edge1" class="edge"><title>192.168.0.1&#45;&#45;192.168.0.0</title>
<path fill="none" stroke="black" d="M1304.32,-1206.02C1305.55,-1139.59 1309.85,-908.63 1311.1,-841.528"/>
</g>
<!-- 192.168.0.5 -->
<g id="node5" class="node"><title>192.168.0.5</title>
<ellipse fill="white" stroke="black" cx="962.948" cy="-1021.45" rx="53.0913" ry="18"/>
<text text-anchor="middle" x="962.948" y="-1017.75" font-family="Times,serif" font-size="14.00">192.168.0.5</text>
</g>
<!-- 192.168.0.5&#45;&#45;192.168.0.0 -->
<g id="edge2" class="edge"><title>192.168.0.5&#45;&#45;192.168.0.0</title>
<path fill="none" stroke="black" d="M990.294,-1005.88C1055.44,-968.807 1219.21,-875.606 1284.23,-838.604"/>
</g>
<!-- 192.168.0.7 -->
<g id="node6" class="node"><title>192.168.0.7</title>
<ellipse fill="white" stroke="black" cx="962.948" cy="-624.781" rx="53.0913" ry="18"/>
<text text-anchor="middle" x="962.948" y="-621.081" font-family="Times,serif" font-size="14.00">192.168.0.7</text>
</g>
<!-- 192.168.0.7&#45;&#45;192.168.0.0 -->
<g id="edge3" class="edge"><title>192.168.0.7&#45;&#45;192.168.0.0</title>
<path fill="none" stroke="black" d="M990.294,-640.344C1055.44,-677.419 1219.21,-770.621 1284.23,-807.623"/>
</g>
<!-- 192.168.0.6 -->
<g id="node7" class="node"><title>192.168.0.6</title>
<ellipse fill="white" stroke="black" cx="1303.98" cy="-422.202" rx="53.0913" ry="18"/>
<text text-anchor="middle" x="1303.98" y="-418.502" font-family="Times,serif" font-size="14.00">192.168.0.6</text>
</g>
<!-- 192.168.0.6&#45;&#45;192.168.0.0 -->
<g id="edge4" class="edge"><title>192.168.0.6&#45;&#45;192.168.0.0</title>
<path fill="none" stroke="black" d="M1304.32,-440.207C1305.55,-506.638 1309.85,-737.596 1311.1,-804.699"/>
</g>
<!-- 127.0.0.1 -->
<g id="node8" class="node"><title>127.0.0.1</title>
<ellipse fill="white" stroke="black" cx="1784.17" cy="-663.371" rx="44.393" ry="18"/>
<text text-anchor="middle" x="1784.17" y="-659.671" font-family="Times,serif" font-size="14.00">127.0.0.1</text>
</g>
<!-- unknown -->
<g id="node19" class="node"><title>unknown</title>
<ellipse fill="red" stroke="black" cx="1784.17" cy="-823.113" rx="43.5923" ry="18"/>
<text text-anchor="middle" x="1784.17" y="-819.413" font-family="Times,serif" font-size="14.00">unknown</text>
</g>
<!-- 127.0.0.1&#45;&#45;unknown -->
<g id="edge5" class="edge"><title>127.0.0.1&#45;&#45;unknown</title>
<path fill="none" stroke="black" d="M1784.17,-681.385C1784.17,-712.065 1784.17,-774.119 1784.17,-804.92"/>
</g>
<!-- 10.11.10.4 -->
<g id="node9" class="node"><title>10.11.10.4</title>
<ellipse fill="white" stroke="black" cx="1056.62" cy="-394.113" rx="48.9926" ry="18"/>
<text text-anchor="middle" x="1056.62" y="-390.413" font-family="Times,serif" font-size="14.00">10.11.10.4</text>
</g>
<!-- 10.11.10.4&#45;&#45;10.11.0.0 -->
<g id="edge6" class="edge"><title>10.11.10.4&#45;&#45;10.11.0.0</title>
<path fill="none" stroke="black" d="M1007.72,-394.113C925.542,-394.113 761.007,-394.113 681.91,-394.113"/>
</g>
<!-- 10.11.10.5 -->
<g id="node10" class="node"><title>10.11.10.5</title>
<ellipse fill="white" stroke="black" cx="858.956" cy="-749.983" rx="48.9926" ry="18"/>
<text text-anchor="middle" x="858.956" y="-746.283" font-family="Times,serif" font-size="14.00">10.11.10.5</text>
</g>
<!-- 10.11.10.5&#45;&#45;10.11.0.0 -->
<g id="edge7" class="edge"><title>10.11.10.5&#45;&#45;10.11.0.0</title>
<path fill="none" stroke="black" d="M847.971,-732.336C810.258,-671.748 686.309,-472.617 648.495,-411.867"/>
</g>
<!-- 10.11.10.1&#45;&#45;10.11.0.0 -->
<g id="edge8" class="edge"><title>10.11.10.1&#45;&#45;10.11.0.0</title>
<path fill="none" stroke="black" d="M520.374,-459.14C546.316,-444.73 585.194,-423.135 610.931,-408.84"/>
</g>
<!-- 10.11.10.2 -->
<g id="node12" class="node"><title>10.11.10.2</title>
<ellipse fill="white" stroke="black" cx="452.377" cy="-18" rx="48.9926" ry="18"/>
<text text-anchor="middle" x="452.377" y="-14.3" font-family="Times,serif" font-size="14.00">10.11.10.2</text>
</g>
<!-- 10.11.10.2&#45;&#45;10.11.0.0 -->
<g id="edge9" class="edge"><title>10.11.10.2&#45;&#45;10.11.0.0</title>
<path fill="none" stroke="black" d="M461.303,-36.1407C492.639,-99.8252 597.412,-312.755 628.607,-376.154"/>
</g>
<!-- 10.11.10.3 -->
<g id="node13" class="node"><title>10.11.10.3</title>
<ellipse fill="white" stroke="black" cx="858.956" cy="-38.2432" rx="48.9926" ry="18"/>
<text text-anchor="middle" x="858.956" y="-34.5432" font-family="Times,serif" font-size="14.00">10.11.10.3</text>
</g>
<!-- 10.11.10.3&#45;&#45;10.11.0.0 -->
<g id="edge10" class="edge"><title>10.11.10.3&#45;&#45;10.11.0.0</title>
<path fill="none" stroke="black" d="M847.971,-55.8908C810.258,-116.478 686.309,-315.61 648.495,-376.359"/>
</g>
<!-- 10.10.10.3 -->
<g id="node14" class="node"><title>10.10.10.3</title>
<ellipse fill="white" stroke="black" cx="342.273" cy="-725.972" rx="48.9926" ry="18"/>
<text text-anchor="middle" x="342.273" y="-722.272" font-family="Times,serif" font-size="14.00">10.10.10.3</text>
</g>
<!-- 10.10.10.3&#45;&#45;10.10.10.0 -->
<g id="edge11" class="edge"><title>10.10.10.3&#45;&#45;10.10.10.0</title>
<path fill="none" stroke="black" d="M316.62,-710.589C290.213,-694.753 249.291,-670.213 222.8,-654.327"/>
</g>
<!-- 10.10.10.2 -->
<g id="node15" class="node"><title>10.10.10.2</title>
<ellipse fill="white" stroke="black" cx="48.7457" cy="-721.104" rx="48.9926" ry="18"/>
<text text-anchor="middle" x="48.7457" y="-717.404" font-family="Times,serif" font-size="14.00">10.10.10.2</text>
</g>
<!-- 10.10.10.2&#45;&#45;10.10.10.0 -->
<g id="edge12" class="edge"><title>10.10.10.2&#45;&#45;10.10.10.0</title>
<path fill="none" stroke="black" d="M75.9221,-706.009C102.657,-691.16 143.236,-668.62 169.91,-653.804"/>
</g>
<!-- 10.10.10.1 -->
<g id="node16" class="node"><title>10.10.10.1</title>
<ellipse fill="white" stroke="black" cx="199.725" cy="-469.336" rx="48.9926" ry="18"/>
<text text-anchor="middle" x="199.725" y="-465.636" font-family="Times,serif" font-size="14.00">10.10.10.1</text>
</g>
<!-- 10.10.10.1&#45;&#45;10.10.10.0 -->
<g id="edge13" class="edge"><title>10.10.10.1&#45;&#45;10.10.10.0</title>
<path fill="none" stroke="black" d="M199.424,-487.472C198.883,-520.09 197.753,-588.276 197.213,-620.799"/>
</g>
<!-- 8.8.4.4 -->
<g id="node17" class="node"><title>8.8.4.4</title>
<ellipse fill="white" stroke="black" cx="1784.17" cy="-982.855" rx="35.9954" ry="18"/>
<text text-anchor="middle" x="1784.17" y="-979.155" font-family="Times,serif" font-size="14.00">8.8.4.4</text>
</g>
<!-- 8.8.4.4&#45;&#45;unknown -->
<g id="edge14" class="edge"><title>8.8.4.4&#45;&#45;unknown</title>
<path fill="none" stroke="black" d="M1784.17,-964.841C1784.17,-934.162 1784.17,-872.108 1784.17,-841.306"/>
</g>
<!-- 8.8.8.8&#45;&#45;unknown -->
<g id="edge15" class="edge"><title>8.8.8.8&#45;&#45;unknown</title>
<path fill="none" stroke="black" d="M1508.24,-823.113C1565.72,-823.113 1678.52,-823.113 1740.61,-823.113"/>
</g>
</g>
</svg>
