<?xml version="1.0" encoding="UTF-8" standalone="no"?>
<!DOCTYPE svg PUBLIC "-//W3C//DTD SVG 1.1//EN"
 "http://www.w3.org/Graphics/SVG/1.1/DTD/svg11.dtd">
<!-- Generated by graphviz version 2.38.0 (20140413.2041)
 -->
<!-- Title: %3 Pages: 1 -->
<svg width="1983pt" height="1246pt"
 viewBox="0.00 0.00 1983.25 1246.48" xmlns="http://www.w3.org/2000/svg" xmlns:xlink="http://www.w3.org/1999/xlink">
<g id="graph0" class="graph" transform="scale(1 1) rotate(0) translate(4 1242.48)">
<title>%3</title>
<polygon fill="white" stroke="none" points="-4,4 -4,-1242.48 1979.25,-1242.48 1979.25,4 -4,4"/>
<!-- 192.168.0.0 -->
<g id="node1" class="node"><title>192.168.0.0</title>
<ellipse fill="cyan" stroke="black" cx="463.747" cy="-490.539" rx="53.0913" ry="18"/>
<text text-anchor="middle" x="463.747" y="-486.839" font-family="Times,serif" font-size="14.00">192.168.0.0</text>
</g>
<!-- 8.8.8.8 -->
<g id="node18" class="node"><title>8.8.8.8</title>
<ellipse fill="white" stroke="black" cx="678.845" cy="-490.539" rx="89.6056" ry="26.7407"/>
<text text-anchor="middle" x="678.845" y="-494.339" font-family="Times,serif" font-size="14.00">real1 # 192.168.0.0 </text>
<text text-anchor="middle" x="678.845" y="-479.339" font-family="Times,serif" font-size="14.00">8.8.8.8</text>
</g>
<!-- 192.168.0.0&#45;&#45;8.8.8.8 -->
<g id="edge17" class="edge"><title>192.168.0.0&#45;&#45;8.8.8.8</title>
<path fill="none" stroke="black" d="M517.194,-490.539C538.843,-490.539 564.448,-490.539 588.818,-490.539"/>
</g>
<!-- 10.11.0.0 -->
<g id="node2" class="node"><title>10.11.0.0</title>
<ellipse fill="cyan" stroke="black" cx="1447.75" cy="-812.539" rx="44.393" ry="18"/>
<text text-anchor="middle" x="1447.75" y="-808.839" font-family="Times,serif" font-size="14.00">10.11.0.0</text>
</g>
<!-- 10.10.10.0 -->
<g id="node3" class="node"><title>10.10.10.0</title>
<ellipse fill="cyan" stroke="black" cx="929.551" cy="-1095.4" rx="48.9926" ry="18"/>
<text text-anchor="middle" x="929.551" y="-1091.7" font-family="Times,serif" font-size="14.00">10.10.10.0</text>
</g>
<!-- 10.11.10.1 -->
<g id="node11" class="node"><title>10.11.10.1</title>
<ellipse fill="white" stroke="black" cx="1275.62" cy="-906.494" rx="79.8063" ry="26.7407"/>
<text text-anchor="middle" x="1275.62" y="-910.294" font-family="Times,serif" font-size="14.00">one # 10.10.10.0 </text>
<text text-anchor="middle" x="1275.62" y="-895.294" font-family="Times,serif" font-size="14.00">10.11.10.1</text>
</g>
<!-- 10.10.10.0&#45;&#45;10.11.10.1 -->
<g id="edge16" class="edge"><title>10.10.10.0&#45;&#45;10.11.10.1</title>
<path fill="none" stroke="black" d="M956.995,-1080.42C1017.35,-1047.47 1161.91,-968.561 1233.7,-929.375"/>
</g>
<!-- 192.168.0.1 -->
<g id="node4" class="node"><title>192.168.0.1</title>
<ellipse fill="white" stroke="black" cx="441.029" cy="-954.207" rx="57.9655" ry="26.7407"/>
<text text-anchor="middle" x="441.029" y="-958.007" font-family="Times,serif" font-size="14.00">neque </text>
<text text-anchor="middle" x="441.029" y="-943.007" font-family="Times,serif" font-size="14.00">192.168.0.1</text>
</g>
<!-- 192.168.0.1&#45;&#45;192.168.0.0 -->
<g id="edge1" class="edge"><title>192.168.0.1&#45;&#45;192.168.0.0</title>
<path fill="none" stroke="black" d="M442.349,-927.274C446.515,-842.232 459.324,-580.816 462.844,-508.974"/>
</g>
<!-- 192.168.0.5 -->
<g id="node5" class="node"><title>192.168.0.5</title>
<ellipse fill="white" stroke="black" cx="57.9828" cy="-716.059" rx="57.9655" ry="26.7407"/>
<text text-anchor="middle" x="57.9828" y="-719.859" font-family="Times,serif" font-size="14.00">maxime </text>
<text text-anchor="middle" x="57.9828" y="-704.859" font-family="Times,serif" font-size="14.00">192.168.0.5</text>
</g>
<!-- 192.168.0.5&#45;&#45;192.168.0.0 -->
<g id="edge2" class="edge"><title>192.168.0.5&#45;&#45;192.168.0.0</title>
<path fill="none" stroke="black" d="M95.4288,-695.247C176.064,-650.431 364.58,-545.655 435.818,-506.062"/>
</g>
<!-- 192.168.0.7 -->
<g id="node6" class="node"><title>192.168.0.7</title>
<ellipse fill="white" stroke="black" cx="57.9828" cy="-265.018" rx="57.9655" ry="26.7407"/>
<text text-anchor="middle" x="57.9828" y="-268.818" font-family="Times,serif" font-size="14.00">occaecati </text>
<text text-anchor="middle" x="57.9828" y="-253.818" font-family="Times,serif" font-size="14.00">192.168.0.7</text>
</g>
<!-- 192.168.0.7&#45;&#45;192.168.0.0 -->
<g id="edge3" class="edge"><title>192.168.0.7&#45;&#45;192.168.0.0</title>
<path fill="none" stroke="black" d="M95.4288,-285.83C176.064,-330.646 364.58,-435.422 435.818,-475.015"/>
</g>
<!-- 192.168.0.6 -->
<g id="node7" class="node"><title>192.168.0.6</title>
<ellipse fill="white" stroke="black" cx="441.029" cy="-26.8701" rx="57.9655" ry="26.7407"/>
<text text-anchor="middle" x="441.029" y="-30.6701" font-family="Times,serif" font-size="14.00">ea </text>
<text text-anchor="middle" x="441.029" y="-15.6701" font-family="Times,serif" font-size="14.00">192.168.0.6</text>
</g>
<!-- 192.168.0.6&#45;&#45;192.168.0.0 -->
<g id="edge4" class="edge"><title>192.168.0.6&#45;&#45;192.168.0.0</title>
<path fill="none" stroke="black" d="M442.349,-53.803C446.515,-138.845 459.324,-400.261 462.844,-472.103"/>
</g>
<!-- 127.0.0.1 -->
<g id="node8" class="node"><title>127.0.0.1</title>
<ellipse fill="white" stroke="black" cx="1053.77" cy="-326.202" rx="48.5816" ry="26.7407"/>
<text text-anchor="middle" x="1053.77" y="-330.002" font-family="Times,serif" font-size="14.00">localhost </text>
<text text-anchor="middle" x="1053.77" y="-315.002" font-family="Times,serif" font-size="14.00">127.0.0.1</text>
</g>
<!-- unknown -->
<g id="node19" class="node"><title>unknown</title>
<ellipse fill="red" stroke="black" cx="1053.77" cy="-490.539" rx="43.5923" ry="18"/>
<text text-anchor="middle" x="1053.77" y="-486.839" font-family="Times,serif" font-size="14.00">unknown</text>
</g>
<!-- 127.0.0.1&#45;&#45;unknown -->
<g id="edge5" class="edge"><title>127.0.0.1&#45;&#45;unknown</title>
<path fill="none" stroke="black" d="M1053.77,-353.339C1053.77,-387.07 1053.77,-443.699 1053.77,-472.516"/>
</g>
<!-- 10.11.10.4 -->
<g id="node9" class="node"><title>10.11.10.4</title>
<ellipse fill="white" stroke="black" cx="1922.21" cy="-812.539" rx="53.066" ry="26.7407"/>
<text text-anchor="middle" x="1922.21" y="-816.339" font-family="Times,serif" font-size="14.00">four </text>
<text text-anchor="middle" x="1922.21" y="-801.339" font-family="Times,serif" font-size="14.00">10.11.10.4</text>
</g>
<!-- 10.11.10.4&#45;&#45;10.11.0.0 -->
<g id="edge6" class="edge"><title>10.11.10.4&#45;&#45;10.11.0.0</title>
<path fill="none" stroke="black" d="M1869.17,-812.539C1774.86,-812.539 1579.71,-812.539 1492.06,-812.539"/>
</g>
<!-- 10.11.10.5 -->
<g id="node10" class="node"><title>10.11.10.5</title>
<ellipse fill="white" stroke="black" cx="1704.38" cy="-1211.61" rx="53.066" ry="26.7407"/>
<text text-anchor="middle" x="1704.38" y="-1215.41" font-family="Times,serif" font-size="14.00">five </text>
<text text-anchor="middle" x="1704.38" y="-1200.41" font-family="Times,serif" font-size="14.00">10.11.10.5</text>
</g>
<!-- 10.11.10.5&#45;&#45;10.11.0.0 -->
<g id="edge7" class="edge"><title>10.11.10.5&#45;&#45;10.11.0.0</title>
<path fill="none" stroke="black" d="M1687.94,-1186.04C1639.81,-1111.21 1500.08,-893.925 1459.15,-830.263"/>
</g>
<!-- 10.11.10.1&#45;&#45;10.11.0.0 -->
<g id="edge8" class="edge"><title>10.11.10.1&#45;&#45;10.11.0.0</title>
<path fill="none" stroke="black" d="M1317.73,-883.51C1349.97,-865.908 1393.48,-842.163 1421.07,-827.098"/>
</g>
<!-- 10.11.10.2 -->
<g id="node12" class="node"><title>10.11.10.2</title>
<ellipse fill="white" stroke="black" cx="1250.9" cy="-380.833" rx="53.066" ry="26.7407"/>
<text text-anchor="middle" x="1250.9" y="-384.633" font-family="Times,serif" font-size="14.00">two </text>
<text text-anchor="middle" x="1250.9" y="-369.633" font-family="Times,serif" font-size="14.00">10.11.10.2</text>
</g>
<!-- 10.11.10.2&#45;&#45;10.11.0.0 -->
<g id="edge9" class="edge"><title>10.11.10.2&#45;&#45;10.11.0.0</title>
<path fill="none" stroke="black" d="M1262.92,-407.188C1299.48,-487.371 1408.75,-727.012 1439.57,-794.609"/>
</g>
<!-- 10.11.10.3 -->
<g id="node13" class="node"><title>10.11.10.3</title>
<ellipse fill="white" stroke="black" cx="1704.38" cy="-413.466" rx="53.066" ry="26.7407"/>
<text text-anchor="middle" x="1704.38" y="-417.266" font-family="Times,serif" font-size="14.00">three </text>
<text text-anchor="middle" x="1704.38" y="-402.266" font-family="Times,serif" font-size="14.00">10.11.10.3</text>
</g>
<!-- 10.11.10.3&#45;&#45;10.11.0.0 -->
<g id="edge10" class="edge"><title>10.11.10.3&#45;&#45;10.11.0.0</title>
<path fill="none" stroke="black" d="M1687.94,-439.037C1639.81,-513.87 1500.08,-731.152 1459.15,-794.814"/>
</g>
<!-- 10.10.10.3 -->
<g id="node14" class="node"><title>10.10.10.3</title>
<ellipse fill="white" stroke="black" cx="1085.24" cy="-1188.81" rx="60.623" ry="26.7407"/>
<text text-anchor="middle" x="1085.24" y="-1192.61" font-family="Times,serif" font-size="14.00">consequatur </text>
<text text-anchor="middle" x="1085.24" y="-1177.61" font-family="Times,serif" font-size="14.00">10.10.10.3</text>
</g>
<!-- 10.10.10.3&#45;&#45;10.10.10.0 -->
<g id="edge11" class="edge"><title>10.10.10.3&#45;&#45;10.10.10.0</title>
<path fill="none" stroke="black" d="M1049.13,-1167.14C1020.38,-1149.89 980.859,-1126.18 955.259,-1110.82"/>
</g>
<!-- 10.10.10.2 -->
<g id="node15" class="node"><title>10.10.10.2</title>
<ellipse fill="white" stroke="black" cx="768.363" cy="-1178.95" rx="60.623" ry="26.7407"/>
<text text-anchor="middle" x="768.363" y="-1182.75" font-family="Times,serif" font-size="14.00">dignissimos </text>
<text text-anchor="middle" x="768.363" y="-1167.75" font-family="Times,serif" font-size="14.00">10.10.10.2</text>
</g>
<!-- 10.10.10.2&#45;&#45;10.10.10.0 -->
<g id="edge12" class="edge"><title>10.10.10.2&#45;&#45;10.10.10.0</title>
<path fill="none" stroke="black" d="M808.207,-1158.3C837.014,-1143.37 875.247,-1123.55 901.036,-1110.18"/>
</g>
<!-- 10.10.10.1 -->
<g id="node16" class="node"><title>10.10.10.1</title>
<ellipse fill="white" stroke="black" cx="935.194" cy="-913.928" rx="53.066" ry="26.7407"/>
<text text-anchor="middle" x="935.194" y="-917.728" font-family="Times,serif" font-size="14.00">sit </text>
<text text-anchor="middle" x="935.194" y="-902.728" font-family="Times,serif" font-size="14.00">10.10.10.1</text>
</g>
<!-- 10.10.10.1&#45;&#45;10.10.10.0 -->
<g id="edge13" class="edge"><title>10.10.10.1&#45;&#45;10.10.10.0</title>
<path fill="none" stroke="black" d="M934.349,-941.096C933.183,-978.569 931.114,-1045.11 930.118,-1077.16"/>
</g>
<!-- 8.8.4.4 -->
<g id="node17" class="node"><title>8.8.4.4</title>
<ellipse fill="white" stroke="black" cx="1053.77" cy="-654.875" rx="38.7821" ry="26.7407"/>
<text text-anchor="middle" x="1053.77" y="-658.675" font-family="Times,serif" font-size="14.00">real2 </text>
<text text-anchor="middle" x="1053.77" y="-643.675" font-family="Times,serif" font-size="14.00">8.8.4.4</text>
</g>
<!-- 8.8.4.4&#45;&#45;unknown -->
<g id="edge14" class="edge"><title>8.8.4.4&#45;&#45;unknown</title>
<path fill="none" stroke="black" d="M1053.77,-627.738C1053.77,-594.007 1053.77,-537.378 1053.77,-508.561"/>
</g>
<!-- 8.8.8.8&#45;&#45;unknown -->
<g id="edge15" class="edge"><title>8.8.8.8&#45;&#45;unknown</title>
<path fill="none" stroke="black" d="M768.65,-490.539C844.907,-490.539 951.077,-490.539 1009.99,-490.539"/>
</g>
</g>
</svg>
